<?xml version="1.0" encoding="utf-8"?>
<!-- Svg Vector Icons : http://www.onlinewebfonts.com/icon -->
<!DOCTYPE svg PUBLIC "-//W3C//DTD SVG 1.1//EN" "http://www.w3.org/Graphics/SVG/1.1/DTD/svg11.dtd">
<svg version="1.1" xmlns="http://www.w3.org/2000/svg" xmlns:xlink="http://www.w3.org/1999/xlink" x="0px" y="0px" viewBox="0 0 1000 1000" enable-background="new 0 0 1000 1000" xml:space="preserve">
<metadata> Svg Vector Icons : http://www.onlinewebfonts.com/icon </metadata>
<g><path d="M10,147.2c326.7,0,653.3,0,980,0v705.5c-326.7,0-653.3,0-980,0V147.2L10,147.2z M49.2,186.4c0.1,16.3,0,32.6,0,48.8C176.7,346.9,304.7,458,432.4,569.5c18.5,16.7,42.5,28,67.7,28.3c25.1-0.4,49-11.6,67.5-28.3c127.7-111.4,255.7-222.6,383.2-334.2c0.1-16.3,0-32.6,0-48.9C650.3,186.4,349.7,186.4,49.2,186.4z M49.1,715c85.7-67.9,171.5-135.6,257.2-203.5c-85.7-74.8-171.6-149.4-257.2-224.3C49.2,429.8,49.2,572.4,49.1,715z M693.6,511.5c85.7,67.8,171.6,135.5,257.2,203.4c0-142.6-0.1-285.1,0-427.7C865.2,362.1,779.4,436.8,693.6,511.5z M58.7,757.3c-3.1,2.8-7.3,4.7-9.4,8.4c-0.4,15.9-0.1,31.9-0.1,47.8c300.5,0,601.1,0,901.6,0c0.1-14-0.1-27.9,0.1-41.9c-0.3-2.9,0.8-6.6-2.1-8.4c-95-75.2-190.2-150.3-285.2-225.5c-23.6,20.3-47,40.9-70.5,61.3c-18.2,15.8-39.6,28.7-63.4,33.9c-30.1,8.5-62.8,2.8-90.3-11.3c-18.1-9-33-22.8-48.1-36c-18.3-16-36.6-31.9-54.9-47.9C243.8,610.9,151.3,684.2,58.7,757.3z"/></g>
</svg>