<?xml version="1.0" encoding="utf-8"?>
<!-- Svg Vector Icons : http://www.onlinewebfonts.com/icon -->
<!DOCTYPE svg PUBLIC "-//W3C//DTD SVG 1.1//EN" "http://www.w3.org/Graphics/SVG/1.1/DTD/svg11.dtd">
<svg version="1.1" xmlns="http://www.w3.org/2000/svg" xmlns:xlink="http://www.w3.org/1999/xlink" x="0px" y="0px" viewBox="0 0 1000 1000" enable-background="new 0 0 1000 1000" xml:space="preserve">
<metadata> Svg Vector Icons : http://www.onlinewebfonts.com/icon </metadata>
<g><path d="M949.2,824.8c0-144.2-33.9-365.6-220.7-365.6c-19.8,0-103.4,88.7-228.5,88.7c-125.1,0-208.6-88.7-228.5-88.7c-186.9,0-220.7,221.4-220.7,365.6c0,103.3,68.9,165.2,170.3,165.2h557.6C880.3,990,949.2,928.1,949.2,824.8z M745,255c0-135.2-109.8-245-245-245c-135.2,0-245,109.8-245,245s109.8,245,245,245C635.2,500,745,390.2,745,255z"/></g>
</svg>